<?xml version="1.0" standalone="no"?>
<!DOCTYPE svg PUBLIC "-//W3C//DTD SVG 20010904//EN"
 "http://www.w3.org/TR/2001/REC-SVG-20010904/DTD/svg10.dtd">
<svg version="1.0" xmlns="http://www.w3.org/2000/svg"
 width="6939.000000pt" height="6939.000000pt" viewBox="0 0 6939.000000 6939.000000"
 preserveAspectRatio="xMidYMid meet">
<metadata>
Created by potrace 1.11, written by Peter Selinger 2001-2013
</metadata>
<g transform="translate(0.000000,6939.000000) scale(0.100000,-0.100000)"
fill="#000000" stroke="none">
<path d="M45790 66244 c-529 -22 -1344 -96 -1790 -163 l-125 -19 -305 44
c-410 60 -955 109 -1440 130 -1650 70 -3580 -164 -5505 -667 -1666 -436 -3504
-1126 -5255 -1972 -2890 -1398 -5902 -3385 -8835 -5831 -5092 -4246 -9682
-9672 -13653 -16136 -3024 -4924 -5235 -9803 -6622 -14615 -1390 -4824 -1796
-9140 -1211 -12875 109 -692 286 -1529 452 -2129 286 -1037 729 -2130 1227
-3031 397 -719 938 -1496 1426 -2050 632 -717 1454 -1414 2281 -1933 631 -397
1431 -787 2117 -1033 507 -181 1193 -365 1788 -479 2377 -453 5110 -243 8065
622 371 108 525 156 1015 318 l285 94 385 66 c3353 567 6827 1918 10475 4073
2597 1533 5109 3356 7525 5458 485 422 1150 1020 1265 1137 88 90 178 170 196
175 7 2 116 106 243 232 418 414 488 480 499 473 5 -3 7 -1 4 4 -6 9 186 201
911 912 81 79 313 306 515 505 202 198 448 439 545 534 337 331 449 442 445
442 -2 0 -17 -7 -33 -15 -17 -9 -30 -13 -30 -10 0 10 99 54 102 46 6 -16 872
507 1616 976 1357 855 2773 1826 4117 2823 286 212 802 608 897 687 47 40 91
73 97 73 6 0 11 4 11 9 0 5 62 59 138 121 75 62 157 129 182 150 112 95 144
119 153 113 6 -3 7 -2 4 4 -3 5 11 23 31 40 146 120 175 142 185 136 5 -3 7
-1 4 4 -4 6 12 26 35 44 23 19 56 46 74 62 17 15 37 27 43 27 6 0 11 4 11 9 0
6 58 57 130 116 71 58 135 111 142 118 7 7 33 28 58 47 25 19 47 37 50 40 3 3
30 25 60 50 30 25 66 54 80 66 21 19 192 161 325 269 96 79 363 300 394 326
19 16 53 44 75 62 22 17 56 46 76 62 19 17 73 62 120 100 47 38 94 77 105 86
38 32 222 184 265 219 24 19 48 40 54 45 6 6 67 57 136 113 169 140 156 130
240 197 166 132 899 799 1480 1346 492 462 560 529 545 529 -5 0 44 53 107
118 64 64 203 206 310 316 106 109 279 287 385 395 105 108 236 242 290 298
54 56 229 235 388 398 160 163 292 301 293 306 2 5 8 7 13 3 5 -3 9 -1 9 5 0
5 48 59 108 120 59 60 231 237 382 392 151 155 316 323 366 373 136 137 281
298 710 786 1305 1488 2537 3051 3630 4605 2767 3933 4948 8154 6069 11740
219 702 444 1542 575 2145 332 1537 484 3136 426 4505 -64 1512 -320 2837
-787 4079 -289 770 -698 1571 -1122 2200 -1222 1811 -3007 3196 -5297 4109
-1564 623 -3288 1004 -5190 1147 -1522 114 -3103 87 -4736 -81 l-502 -52 -113
41 c-207 75 -719 223 -1049 303 -1269 308 -2682 435 -4160 373z m-3146 -2680
c179 -32 234 -44 198 -44 -37 0 -1185 -423 -1772 -653 -4953 -1939 -9778
-4683 -14360 -8167 -1030 -783 -1748 -1359 -2705 -2169 -1968 -1666 -3902
-3528 -5595 -5386 -2813 -3086 -5233 -6417 -7227 -9945 -940 -1662 -1793
-3419 -2413 -4970 -915 -2287 -1504 -4491 -1719 -6435 -71 -636 -101 -1195
-101 -1870 0 -1451 197 -2806 592 -4070 406 -1299 1040 -2510 1847 -3524 726
-912 1640 -1721 2676 -2368 2107 -1316 4774 -2066 7905 -2223 1519 -76 3276 3
4986 225 2404 313 5038 950 7608 1841 181 63 331 113 333 110 2 -2 -189 -159
-424 -348 -2904 -2335 -5813 -4183 -8658 -5500 -775 -359 -1685 -733 -2379
-979 -355 -126 -352 -125 -976 -198 -719 -85 -1329 -121 -2045 -121 -546 0
-859 12 -1322 50 -1918 159 -3646 677 -5122 1534 -314 183 -671 413 -898 579
-414 302 -938 761 -1314 1149 -2072 2140 -3317 5326 -3539 9063 -49 824 -51
1899 -6 2755 177 3298 976 6799 2436 10669 365 968 683 1732 1163 2786 339
746 657 1401 1044 2150 938 1814 2062 3656 3366 5515 1364 1943 2716 3658
4326 5485 3425 3886 7207 7204 11198 9826 2117 1391 4249 2549 6278 3411 2131
905 4174 1504 6295 1847 91 14 115 13 324 -25z m12886 -399 c1788 -188 3553
-630 4966 -1243 1292 -561 2463 -1322 3432 -2231 544 -510 914 -934 1340
-1533 608 -855 1108 -1855 1452 -2905 230 -699 360 -1260 469 -2013 184 -1270
185 -2637 5 -4125 -90 -743 -236 -1532 -439 -2365 -161 -660 -301 -1154 -487
-1720 -535 -1624 -1195 -3155 -1981 -4595 -620 -1137 -1411 -2361 -2385 -3695
-1253 -1714 -2779 -3514 -4471 -5275 -486 -505 -1066 -1084 -1305 -1300 -57
-52 -275 -252 -287 -264 -9 -9 -34 -32 -55 -51 -21 -19 -71 -64 -109 -100 -39
-36 -100 -92 -136 -125 -36 -33 -112 -104 -170 -157 -57 -53 -113 -105 -125
-115 -29 -25 -214 -195 -233 -214 -9 -8 -45 -42 -81 -75 -92 -83 -277 -253
-315 -289 -18 -16 -70 -64 -116 -106 -46 -42 -100 -92 -120 -110 -66 -62 -239
-222 -259 -239 -10 -9 -69 -63 -130 -120 -61 -57 -119 -110 -129 -119 -10 -9
-65 -59 -121 -111 -57 -52 -107 -94 -112 -92 -5 1 -7 -2 -4 -7 4 -5 0 -13 -8
-18 -7 -4 -57 -48 -111 -98 -121 -113 -102 -96 -465 -403 -266 -225 -366 -306
-520 -424 -19 -15 -62 -49 -96 -75 -33 -26 -103 -81 -155 -121 -52 -40 -101
-79 -109 -85 -192 -153 -341 -267 -349 -267 -6 0 -11 -4 -11 -8 0 -4 -32 -33
-72 -63 -39 -29 -76 -59 -82 -64 -6 -6 -40 -33 -76 -60 -36 -27 -74 -57 -85
-67 -21 -18 -521 -408 -572 -446 -16 -12 -43 -33 -59 -46 -16 -13 -126 -100
-244 -192 -305 -238 -542 -424 -636 -499 -45 -36 -85 -65 -89 -65 -4 0 -13 -6
-19 -14 -28 -34 -207 -166 -218 -160 -6 4 -8 3 -4 -4 3 -6 -8 -21 -26 -34 -18
-12 -43 -31 -54 -41 -234 -202 -1209 -900 -2154 -1540 -666 -453 -1855 -1227
-1865 -1215 -1 2 115 147 257 323 568 701 1424 1823 2101 2753 555 762 1320
1858 1491 2134 26 43 52 78 58 78 6 0 9 3 5 6 -5 6 12 35 118 199 28 44 87
136 130 205 43 69 111 175 150 235 109 168 259 403 270 423 6 9 105 165 220
345 116 181 215 336 220 344 6 9 75 118 154 242 79 124 157 249 174 276 17 28
46 71 64 97 18 26 33 50 33 53 0 4 17 32 38 63 20 32 43 66 49 77 7 11 40 63
73 115 159 246 180 282 174 291 -3 5 -1 8 4 7 9 -3 62 54 62 67 0 4 76 134
169 288 477 798 1184 2064 1688 3027 1157 2208 2222 4574 3040 6755 1583 4221
2399 8085 2461 11660 14 756 -14 1706 -68 2350 -273 3256 -1300 6032 -2983
8065 -198 239 -539 613 -737 809 l-75 73 110 -6 c61 -3 301 -26 535 -51z
m-20561 -119 c-2 -2 -119 -63 -259 -136 -1398 -729 -3121 -1777 -4600 -2799
-4578 -3161 -8855 -7231 -12715 -12101 -3976 -5016 -7168 -10387 -9497 -15975
-1955 -4691 -3000 -9015 -3133 -12965 -51 -1504 22 -2858 221 -4140 442 -2845
1495 -5232 3094 -7017 365 -407 865 -884 1223 -1168 49 -38 84 -71 79 -73 -6
-2 -154 63 -329 143 -831 382 -1647 890 -2303 1435 -1767 1466 -3044 3529
-3785 6115 -574 2003 -807 4240 -700 6730 131 3078 734 6190 1867 9650 407
1244 976 2756 1478 3930 638 1491 1338 2937 2097 4330 522 957 1211 2111 1841
3085 575 888 1150 1722 1836 2665 2629 3614 5751 7045 8951 9835 2174 1896
4438 3557 6750 4952 2389 1441 4745 2538 6970 3244 487 154 941 284 914 260z
m15134 -140 c286 -110 754 -326 1087 -503 677 -359 1407 -857 1960 -1338 569
-496 1199 -1200 1667 -1865 1720 -2444 2592 -5822 2494 -9670 -65 -2541 -505
-5253 -1312 -8079 -210 -736 -357 -1208 -591 -1896 -360 -1058 -788 -2187
-1170 -3090 -241 -569 -619 -1412 -876 -1955 -151 -318 -655 -1328 -818 -1635
-704 -1335 -1494 -2674 -2205 -3741 -155 -232 -254 -372 -261 -368 -7 4 -8 3
-4 -4 7 -13 -23 -72 -36 -72 -4 0 -8 -6 -8 -13 0 -7 -9 -23 -20 -35 -11 -12
-20 -23 -20 -26 0 -6 -262 -400 -271 -406 -3 -3 -14 -20 -23 -38 -10 -19 -21
-30 -28 -26 -6 4 -8 3 -4 -4 3 -6 -76 -134 -177 -284 -543 -810 -1673 -2334
-2461 -3318 -937 -1170 -2091 -2514 -2999 -3492 l-239 -258 -497 -283 c-273
-156 -608 -341 -746 -412 -137 -70 -290 -149 -340 -175 -311 -164 -727 -370
-737 -364 -6 4 -8 3 -5 -3 4 -6 -80 -54 -196 -113 -111 -57 -214 -110 -229
-117 -15 -8 -33 -11 -39 -7 -7 4 -9 3 -5 -4 4 -7 -46 -37 -131 -80 -163 -83
-380 -194 -408 -210 -11 -6 -38 -20 -60 -30 -22 -10 -84 -42 -137 -71 -54 -28
-98 -48 -98 -44 0 5 -4 3 -8 -3 -4 -7 -52 -34 -107 -62 -98 -49 -283 -143
-600 -307 -273 -141 -1162 -551 -1173 -541 -2 3 153 184 345 403 368 420 763
888 763 904 0 5 35 54 78 108 42 55 120 155 172 223 52 67 100 130 107 138 35
45 116 150 178 230 39 51 105 137 149 193 43 56 89 116 101 132 13 17 43 55
67 85 23 30 72 94 108 141 192 252 254 328 263 322 6 -3 7 -1 3 5 -3 5 30 57
74 114 45 56 91 116 103 133 12 16 33 41 47 55 13 14 24 27 23 30 -1 3 49 70
111 150 62 80 137 177 166 215 30 39 57 72 60 75 4 3 25 30 47 61 23 30 99
130 170 221 70 91 138 178 150 194 12 16 104 135 204 264 100 129 213 277 251
327 39 51 74 91 77 88 4 -2 8 1 8 8 0 11 73 113 115 160 9 10 33 43 55 72 21
30 43 52 50 50 7 -2 10 2 7 9 -3 7 1 20 8 27 7 8 33 40 57 71 24 32 48 55 54
51 6 -3 7 -1 3 5 -3 6 33 62 81 124 48 62 118 153 155 202 37 48 68 85 68 81
0 -20 800 1140 1208 1752 514 771 1383 2135 1427 2238 7 19 58 109 113 202
159 268 333 564 360 613 14 25 28 47 31 50 3 3 14 21 25 40 27 51 43 79 157
271 56 96 132 226 169 289 37 63 98 167 135 230 126 212 198 334 268 455 65
112 248 424 330 560 137 229 576 1034 896 1645 302 575 1024 2030 1314 2650
1076 2294 1971 4563 2645 6705 1521 4825 2077 9101 1687 12960 -97 957 -214
1678 -405 2500 -295 1268 -735 2471 -1290 3525 -383 727 -691 1203 -1158 1793
-211 266 -601 714 -710 814 -31 29 -54 53 -49 53 4 0 94 -33 200 -74z m-3800
-682 c944 -557 1827 -1290 2562 -2125 535 -608 892 -1105 1313 -1831 1609
-2771 2256 -6375 1931 -10758 -158 -2137 -587 -4511 -1244 -6875 -218 -785
-342 -1195 -597 -1965 -385 -1166 -806 -2304 -1261 -3405 -224 -542 -712
-1641 -1013 -2280 -361 -768 -1160 -2313 -1413 -2735 -65 -107 -154 -256 -198
-330 -44 -74 -212 -355 -373 -625 -161 -269 -301 -503 -310 -520 -10 -16 -113
-190 -230 -385 -426 -711 -460 -769 -460 -775 0 -11 -317 -496 -631 -965 -371
-555 -718 -1054 -1135 -1629 -164 -228 -336 -466 -382 -530 -46 -64 -98 -129
-116 -146 -18 -16 -59 -64 -92 -105 -32 -41 -67 -84 -76 -95 -9 -11 -81 -99
-159 -195 -77 -96 -153 -189 -168 -206 -14 -17 -37 -46 -51 -64 -14 -18 -69
-88 -124 -154 -54 -67 -110 -136 -125 -154 -30 -38 -134 -167 -159 -197 -9
-11 -61 -76 -116 -145 -55 -69 -105 -130 -110 -136 -6 -7 -18 -20 -26 -31 -34
-42 -172 -212 -221 -273 -29 -36 -127 -157 -217 -270 -91 -113 -170 -209 -176
-215 -6 -5 -24 -28 -40 -50 -17 -22 -32 -42 -35 -45 -4 -3 -42 -50 -86 -105
-44 -55 -82 -102 -85 -105 -4 -3 -13 -14 -21 -26 -8 -11 -32 -42 -54 -68 -63
-75 -69 -81 -95 -117 -14 -18 -39 -49 -56 -69 -17 -19 -77 -93 -134 -165 -57
-71 -126 -158 -154 -191 -28 -34 -81 -99 -118 -145 -37 -46 -78 -97 -91 -114
-14 -16 -71 -86 -126 -155 -56 -69 -107 -132 -114 -140 -7 -8 -48 -60 -93
-115 -348 -434 -277 -352 -835 -965 -542 -596 -1056 -1138 -1669 -1760 -485
-492 -521 -526 -576 -548 -1880 -738 -3214 -1198 -4773 -1646 -2911 -838
-5651 -1308 -8173 -1401 -536 -19 -1398 -19 -1913 0 -1009 39 -2224 171 -3140
341 -1099 204 -2248 545 -3220 955 -787 331 -1654 801 -2275 1232 -808 560
-1584 1281 -2209 2052 -485 598 -938 1298 -1275 1972 -326 653 -645 1550 -835
2348 -580 2436 -441 5320 400 8328 294 1051 748 2328 1188 3339 920 2117 1906
3798 3520 6003 1733 2368 4004 4914 6428 7206 3043 2876 6600 5598 10303 7884
4749 2931 9541 5038 14250 6265 537 141 1140 288 1178 289 13 1 150 -74 305
-165z m-3673 -43735 c-25 -17 -116 -62 -107 -53 11 12 100 62 112 63 6 0 3 -4
-5 -10z m-120 -64 c0 -2 -22 -16 -50 -30 -27 -14 -50 -23 -50 -20 0 2 21 16
48 29 53 28 52 28 52 21z m-130 -70 c0 -2 -18 -14 -40 -25 -22 -11 -40 -18
-40 -15 0 2 17 13 38 24 42 23 42 23 42 16z m-90 -50 c0 -2 -18 -14 -40 -25
-22 -11 -40 -18 -40 -15 0 2 17 13 38 24 42 23 42 23 42 16z m-110 -60 c0 -2
-18 -14 -40 -25 -22 -11 -40 -18 -40 -15 0 2 17 13 38 24 42 23 42 23 42 16z
m-110 -60 c0 -2 -10 -9 -22 -15 -22 -11 -22 -10 -4 4 21 17 26 19 26 11z m-90
-50 c0 -2 -18 -14 -40 -25 -22 -11 -40 -18 -40 -15 0 2 17 13 38 24 42 23 42
23 42 16z m-110 -60 c0 -2 -13 -11 -30 -20 -38 -19 -40 -11 -2 9 31 17 32 18
32 11z m-90 -50 c0 -2 -18 -14 -40 -25 -22 -11 -40 -18 -40 -15 0 2 17 13 38
24 42 23 42 23 42 16z m-110 -60 c0 -2 -13 -11 -30 -20 -38 -19 -40 -11 -2 9
31 17 32 18 32 11z m-90 -50 c0 -2 -13 -11 -30 -20 -38 -19 -40 -11 -2 9 31
17 32 18 32 11z m-70 -39 c0 -2 -7 -7 -16 -10 -8 -3 -12 -2 -9 4 6 10 25 14
25 6z m-40 -21 c0 -2 -18 -14 -40 -25 -22 -11 -40 -18 -40 -15 0 2 17 13 38
24 42 23 42 23 42 16z m-110 -60 c0 -2 -13 -11 -30 -20 -38 -19 -40 -11 -2 9
31 17 32 18 32 11z m-90 -50 c0 -2 -13 -11 -30 -20 -38 -19 -40 -11 -2 9 31
17 32 18 32 11z m-110 -60 c0 -2 -13 -11 -30 -20 -38 -19 -40 -11 -2 9 31 17
32 18 32 11z m-90 -50 c0 -2 -13 -11 -30 -20 -38 -19 -40 -11 -2 9 31 17 32
18 32 11z m-110 -60 c0 -2 -10 -9 -22 -15 -22 -11 -22 -10 -4 4 21 17 26 19
26 11z m-50 -29 c0 -2 -7 -7 -16 -10 -8 -3 -12 -2 -9 4 6 10 25 14 25 6z m-40
-21 c0 -2 -13 -11 -30 -20 -38 -19 -40 -11 -2 9 31 17 32 18 32 11z m-110 -60
c0 -2 -13 -11 -30 -20 -38 -19 -40 -11 -2 9 31 17 32 18 32 11z m-70 -39 c0
-2 -7 -7 -16 -10 -8 -3 -12 -2 -9 4 6 10 25 14 25 6z m-40 -21 c0 -2 -13 -11
-30 -20 -38 -19 -40 -11 -2 9 31 17 32 18 32 11z m-90 -50 c0 -2 -13 -11 -30
-20 -38 -19 -40 -11 -2 9 31 17 32 18 32 11z m-110 -60 c0 -2 -13 -11 -30 -20
-38 -19 -40 -11 -2 9 31 17 32 18 32 11z m-90 -50 c0 -2 -18 -14 -40 -25 -22
-11 -40 -18 -40 -15 0 2 17 13 38 24 42 23 42 23 42 16z m-110 -60 c0 -2 -13
-11 -30 -20 -38 -19 -40 -11 -2 9 31 17 32 18 32 11z m-110 -60 c0 -2 -13 -11
-30 -20 -38 -19 -40 -11 -2 9 31 17 32 18 32 11z m-90 -50 c0 -2 -13 -11 -30
-20 -38 -19 -40 -11 -2 9 31 17 32 18 32 11z m-110 -60 c0 -2 -13 -11 -30 -20
-38 -19 -40 -11 -2 9 31 17 32 18 32 11z m-122 -78 c-20 -18 -123 -116 -230
-218 -106 -103 -209 -200 -228 -215 -19 -16 -161 -137 -315 -270 -1489 -1281
-3276 -2642 -4895 -3729 -1312 -881 -2681 -1704 -3965 -2382 -383 -203 -985
-507 -991 -501 -2 2 40 35 94 73 53 38 297 220 542 404 1729 1302 3480 2801
5033 4310 l439 426 176 73 c894 371 1710 732 2567 1137 588 278 1325 641 1325
653 0 5 21 21 48 34 50 27 279 154 372 206 70 40 73 40 28 -1z"/>
<path d="M50879 28623 c-13 -16 -12 -17 4 -4 9 7 17 15 17 17 0 8 -8 3 -21
-13z"/>
<path d="M51839 28623 c-13 -16 -12 -17 4 -4 9 7 17 15 17 17 0 8 -8 3 -21
-13z"/>
<path d="M51470 27806 c0 -2 8 -10 18 -17 15 -13 16 -12 3 4 -13 16 -21 21
-21 13z"/>
<path d="M50267 27789 c7 -7 15 -10 18 -7 3 3 -2 9 -12 12 -14 6 -15 5 -6 -5z"/>
<path d="M50830 27486 c0 -2 8 -10 18 -17 15 -13 16 -12 3 4 -13 16 -21 21
-21 13z"/>
<path d="M49900 28716 c0 -2 8 -10 18 -17 15 -13 16 -12 3 4 -13 16 -21 21
-21 13z"/>
<path d="M47060 28116 c0 -2 8 -10 18 -17 15 -13 16 -12 3 4 -13 16 -21 21
-21 13z"/>
<path d="M37110 29906 c7 -7 13 -7 20 0 6 6 3 10 -10 10 -13 0 -16 -4 -10 -10z"/>
<path d="M44790 29906 c7 -7 13 -7 20 0 6 6 3 10 -10 10 -13 0 -16 -4 -10 -10z"/>
<path d="M36020 29716 c0 -2 8 -10 18 -17 15 -13 16 -12 3 4 -13 16 -21 21
-21 13z"/>
<path d="M43700 29716 c0 -2 8 -10 18 -17 15 -13 16 -12 3 4 -13 16 -21 21
-21 13z"/>
<path d="M38070 28946 c7 -7 13 -7 20 0 6 6 3 10 -10 10 -13 0 -16 -4 -10 -10z"/>
<path d="M38709 28873 c-13 -16 -12 -17 4 -4 16 13 21 21 13 21 -2 0 -10 -8
-17 -17z"/>
<path d="M39030 28246 c0 -2 8 -10 18 -17 15 -13 16 -12 3 4 -13 16 -21 21
-21 13z"/>
<path d="M42559 27983 c-13 -16 -12 -17 4 -4 16 13 21 21 13 21 -2 0 -10 -8
-17 -17z"/>
<path d="M43196 27917 c3 -10 9 -15 12 -12 3 3 0 11 -7 18 -10 9 -11 8 -5 -6z"/>
<path d="M37300 27796 c0 -2 8 -10 18 -17 15 -13 16 -12 3 4 -13 16 -21 21
-21 13z"/>
<path d="M41230 26526 c0 -2 8 -10 18 -17 15 -13 16 -12 3 4 -13 16 -21 21
-21 13z"/>
<path d="M39790 23646 c0 -2 8 -10 18 -17 15 -13 16 -12 3 4 -13 16 -21 21
-21 13z"/>
<path d="M40759 23623 c-13 -16 -12 -17 4 -4 16 13 21 21 13 21 -2 0 -10 -8
-17 -17z"/>
<path d="M39470 22046 c0 -2 8 -10 18 -17 15 -13 16 -12 3 4 -13 16 -21 21
-21 13z"/>
<path d="M56620 28796 c0 -2 8 -10 18 -17 15 -13 16 -12 3 4 -13 16 -21 21
-21 13z"/>
<path d="M56950 28246 c0 -2 8 -10 18 -17 15 -13 16 -12 3 4 -13 16 -21 21
-21 13z"/>
<path d="M59069 27473 c-13 -16 -12 -17 4 -4 16 13 21 21 13 21 -2 0 -10 -8
-17 -17z"/>
<path d="M59826 27272 c-2 -4 4 -8 14 -8 10 0 16 4 14 8 -3 4 -9 8 -14 8 -5 0
-11 -4 -14 -8z"/>
<path d="M57910 24886 c0 -2 8 -10 18 -17 15 -13 16 -12 3 4 -13 16 -21 21
-21 13z"/>
<path d="M57900 24316 c0 -2 8 -10 18 -17 15 -13 16 -12 3 4 -13 16 -21 21
-21 13z"/>
<path d="M51709 24273 c-13 -16 -12 -17 4 -4 9 7 17 15 17 17 0 8 -8 3 -21
-13z"/>
<path d="M51630 23646 c0 -2 8 -10 18 -17 15 -13 16 -12 3 4 -13 16 -21 21
-21 13z"/>
<path d="M49719 22343 c-13 -16 -12 -17 4 -4 16 13 21 21 13 21 -2 0 -10 -8
-17 -17z"/>
<path d="M50190 21726 c0 -2 8 -10 18 -17 15 -13 16 -12 3 4 -13 16 -21 21
-21 13z"/>
<path d="M52140 20476 c0 -2 8 -10 18 -17 15 -13 16 -12 3 4 -13 16 -21 21
-21 13z"/>
<path d="M51829 19113 c-13 -16 -12 -17 4 -4 16 13 21 21 13 21 -2 0 -10 -8
-17 -17z"/>
<path d="M42236 17103 c-6 -14 -5 -15 5 -6 7 7 10 15 7 18 -3 3 -9 -2 -12 -12z"/>
<path d="M41879 16263 c-13 -16 -12 -17 4 -4 9 7 17 15 17 17 0 8 -8 3 -21
-13z"/>
<path d="M41309 15953 c-13 -16 -12 -17 4 -4 16 13 21 21 13 21 -2 0 -10 -8
-17 -17z"/>
<path d="M40440 15310 c-9 -6 -10 -10 -3 -10 6 0 15 5 18 10 8 12 4 12 -15 0z"/>
</g>
</svg>
