<?xml version="1.0" standalone="no"?>
<!DOCTYPE svg PUBLIC "-//W3C//DTD SVG 20010904//EN"
 "http://www.w3.org/TR/2001/REC-SVG-20010904/DTD/svg10.dtd">
<svg version="1.0" xmlns="http://www.w3.org/2000/svg"
 width="1024.000000pt" height="1024.000000pt" viewBox="0 0 1024.000000 1024.000000"
 preserveAspectRatio="xMidYMid meet">
<metadata>
Created by potrace 1.11, written by Peter Selinger 2001-2013
</metadata>
<g transform="translate(0.000000,1024.000000) scale(0.100000,-0.100000)"
fill="#000000" stroke="none">
<path d="M6018 9775 c-2 -2 -43 -6 -93 -9 -136 -10 -318 -37 -393 -60 -9 -3
-30 -8 -47 -10 -16 -3 -70 -17 -120 -31 -49 -14 -94 -27 -100 -29 -65 -16
-322 -111 -445 -164 -183 -79 -511 -246 -518 -264 -2 -4 -9 -8 -16 -8 -8 0
-25 -9 -40 -21 -14 -11 -26 -18 -26 -14 0 3 -15 -5 -33 -19 -19 -15 -37 -26
-41 -26 -4 0 -12 -5 -19 -10 -12 -10 -154 -104 -189 -125 -49 -28 -394 -278
-408 -295 -3 -3 -23 -19 -45 -36 -22 -16 -51 -39 -65 -50 -14 -12 -70 -59
-125 -105 -55 -46 -105 -88 -111 -94 -7 -5 -47 -41 -89 -80 -236 -213 -577
-558 -730 -742 -22 -26 -49 -57 -60 -69 -11 -11 -40 -45 -65 -75 -24 -30 -52
-63 -62 -74 -10 -11 -58 -72 -108 -135 -49 -63 -102 -130 -117 -149 -16 -18
-34 -44 -41 -57 -7 -13 -17 -24 -22 -24 -6 0 -10 -6 -10 -14 0 -8 -4 -16 -8
-18 -7 -2 -169 -226 -224 -308 -9 -14 -49 -71 -88 -128 -38 -56 -70 -105 -70
-108 0 -3 -5 -10 -10 -17 -19 -22 -125 -190 -217 -343 -83 -137 -102 -171
-168 -289 -12 -22 -41 -74 -64 -115 -80 -141 -321 -634 -332 -678 -1 -4 -13
-28 -26 -53 -13 -26 -23 -49 -23 -53 0 -3 -11 -29 -24 -58 -39 -87 -170 -442
-221 -598 -54 -169 -93 -302 -136 -473 -33 -131 -34 -135 -43 -192 -4 -20 -8
-40 -10 -44 -2 -3 -7 -22 -10 -41 -3 -19 -8 -45 -10 -56 -2 -12 -7 -37 -10
-55 -3 -19 -8 -51 -11 -73 -4 -21 -9 -48 -11 -60 -2 -11 -6 -41 -9 -66 -3 -25
-7 -61 -9 -80 -38 -292 -38 -728 1 -930 3 -19 6 -39 5 -43 -3 -9 33 -187 54
-275 35 -146 92 -300 162 -439 51 -102 119 -216 134 -221 4 -2 8 -8 8 -13 0
-11 -2 -9 82 -109 34 -41 80 -91 101 -110 22 -19 56 -51 77 -70 123 -111 330
-229 505 -289 247 -83 473 -112 765 -97 105 5 181 14 345 41 23 4 93 19 185
41 64 15 271 76 320 94 14 5 45 12 70 15 155 21 477 107 655 176 44 16 87 32
95 34 8 2 16 4 18 5 1 2 5 3 10 5 11 3 42 16 109 46 34 15 64 25 67 21 3 -3 6
-1 6 5 0 8 26 21 43 21 1 0 62 30 135 66 72 36 136 66 141 66 5 0 11 4 13 9 2
4 40 28 86 52 46 24 91 49 100 54 17 9 205 122 247 148 11 7 48 31 82 55 35
23 67 42 73 42 5 0 10 4 10 8 0 4 15 16 33 27 48 28 241 168 245 177 2 4 9 8
15 8 7 0 29 16 51 35 21 19 41 35 45 35 3 0 17 10 31 23 14 12 50 41 80 65 63
48 123 98 156 127 12 11 40 34 61 52 95 79 210 183 299 269 41 39 74 70 74 69
0 -1 27 24 60 57 33 33 60 64 60 69 0 5 4 9 8 9 5 0 59 51 122 112 62 62 125
120 141 128 44 23 222 132 239 146 8 7 26 19 40 26 14 7 71 45 128 83 57 39
111 75 120 80 9 6 21 14 26 18 6 4 43 30 81 57 39 27 79 56 90 64 11 8 45 33
75 55 30 22 60 44 65 48 6 5 30 24 55 43 25 19 47 38 48 42 2 5 8 8 12 8 5 0
23 12 39 27 35 34 66 60 110 93 18 14 44 35 57 48 13 13 24 21 24 18 0 -2 13
8 29 22 16 15 47 43 70 62 23 19 53 44 66 55 159 133 228 197 465 436 334 336
415 425 624 684 32 39 62 77 69 85 102 126 467 647 467 667 0 3 11 21 25 39
14 18 25 34 25 37 0 2 30 55 68 118 37 63 73 125 80 139 7 14 24 45 39 70 40
71 111 214 111 224 0 5 4 12 9 15 15 10 127 256 193 421 50 126 52 133 56 145
2 6 19 57 39 115 34 101 103 346 111 399 4 24 6 36 19 101 9 41 20 127 31 225
14 123 6 528 -11 555 -2 3 -6 26 -10 50 -16 106 -53 236 -103 362 -41 100
-111 235 -139 266 -7 7 -13 17 -13 22 0 5 -6 15 -12 22 -7 7 -25 29 -39 48
-101 135 -257 272 -454 398 -51 32 -308 152 -327 152 -6 0 -24 6 -41 14 -32
15 -231 72 -277 80 -14 2 -36 7 -50 10 -14 3 -41 8 -60 11 -19 2 -46 7 -60 9
-28 5 -80 12 -185 23 -145 16 -608 8 -771 -12 -23 -3 -58 1 -83 10 -47 16
-197 53 -251 61 -19 3 -46 7 -60 10 -100 19 -431 25 -565 10 -95 -10 -199 -11
-265 -2 -51 7 -336 16 -342 11z m290 -400 c2 -2 -18 -11 -45 -20 -26 -9 -57
-21 -68 -25 -11 -4 -40 -15 -65 -25 -25 -10 -54 -21 -65 -26 -11 -4 -45 -18
-75 -30 -30 -12 -69 -27 -85 -35 -39 -16 -89 -35 -95 -36 -3 0 -16 -6 -30 -14
-14 -7 -56 -27 -95 -45 -38 -17 -130 -60 -203 -95 -74 -35 -138 -64 -143 -64
-5 0 -9 -3 -9 -7 0 -5 -19 -17 -43 -28 -87 -40 -467 -252 -477 -266 -3 -3 -15
-9 -27 -13 -13 -4 -23 -11 -23 -16 0 -4 -11 -11 -25 -14 -14 -4 -25 -11 -25
-16 0 -6 -4 -10 -10 -10 -5 0 -42 -21 -82 -47 -40 -27 -77 -50 -83 -53 -18 -9
-160 -104 -165 -111 -3 -3 -16 -12 -29 -19 -14 -7 -30 -17 -35 -22 -6 -5 -56
-41 -111 -80 -165 -117 -463 -343 -485 -368 -3 -3 -37 -31 -76 -62 -39 -31
-77 -62 -85 -70 -8 -7 -46 -40 -84 -73 -265 -226 -669 -628 -866 -860 -41 -48
-97 -112 -121 -137 -10 -10 -18 -22 -18 -27 0 -5 -4 -11 -8 -13 -15 -6 -225
-275 -323 -413 -27 -38 -56 -78 -64 -87 -29 -35 -245 -368 -245 -378 0 -5 -4
-10 -10 -10 -5 0 -10 -7 -10 -15 0 -8 -4 -15 -9 -15 -5 0 -11 -8 -14 -17 -7
-23 -49 -94 -64 -111 -7 -7 -13 -20 -13 -28 0 -8 -4 -14 -9 -14 -5 0 -11 -8
-14 -17 -3 -10 -19 -40 -35 -68 -47 -83 -184 -341 -187 -355 -1 -3 -22 -49
-48 -103 -167 -354 -318 -825 -353 -1107 -3 -25 -8 -56 -10 -70 -8 -51 -18
-228 -17 -325 0 -170 16 -303 59 -495 22 -100 127 -361 162 -402 8 -10 11 -18
6 -18 -5 0 -4 -4 1 -8 6 -4 26 -32 45 -62 41 -64 40 -64 116 -155 54 -64 88
-99 184 -185 44 -39 223 -160 238 -160 6 0 12 -4 14 -8 11 -27 382 -178 480
-196 15 -2 31 -7 36 -10 5 -3 24 -8 43 -11 19 -4 39 -8 44 -9 21 -6 128 -25
170 -31 17 -3 39 -7 51 -9 11 -2 60 -7 110 -11 49 -4 105 -9 124 -11 47 -5
383 -4 440 1 25 2 83 7 130 10 142 11 174 14 196 19 11 2 47 7 79 10 32 4 61
8 64 10 3 2 28 7 54 10 27 4 92 16 145 27 53 11 108 23 122 25 14 3 43 10 65
16 22 5 47 11 55 13 15 3 209 56 290 79 25 8 100 32 168 54 67 22 122 36 122
31 0 -5 -4 -9 -9 -9 -5 0 -16 -6 -23 -13 -17 -16 -67 -56 -108 -87 -18 -14
-38 -30 -44 -35 -28 -27 -236 -175 -245 -175 -5 0 -14 -6 -18 -13 -4 -7 -46
-38 -93 -68 -47 -31 -98 -64 -114 -75 -16 -10 -36 -23 -45 -29 -9 -5 -50 -31
-92 -58 -42 -26 -81 -47 -87 -47 -7 0 -12 -3 -12 -8 0 -4 -21 -18 -47 -31 -27
-14 -56 -31 -65 -39 -10 -9 -18 -11 -18 -7 0 4 -8 1 -17 -7 -23 -19 -284 -148
-300 -148 -7 0 -13 -4 -13 -8 0 -5 -25 -17 -55 -27 -30 -11 -55 -22 -55 -25 0
-4 -6 -7 -12 -8 -7 0 -65 -21 -128 -45 -114 -45 -135 -50 -240 -62 -132 -14
-365 -20 -455 -10 -22 2 -65 6 -95 10 -224 22 -489 105 -663 207 -26 15 -50
28 -52 28 -9 0 -151 104 -189 139 -155 140 -218 217 -344 416 -40 65 -159 335
-166 378 -1 6 -4 17 -8 22 -3 6 -9 26 -14 45 -11 50 -11 50 -14 53 -2 2 -1 0
-29 127 -11 52 -23 118 -26 145 -4 28 -9 61 -11 75 -25 145 -24 630 1 805 3
17 7 50 10 75 6 55 14 117 20 150 3 14 12 65 21 115 8 49 17 92 19 95 2 3 6
22 9 44 20 125 175 652 234 796 6 14 20 50 31 80 11 30 26 69 32 85 7 17 13
32 14 35 1 3 5 12 8 20 21 48 30 76 29 83 -1 4 3 7 10 7 6 0 9 3 6 6 -8 7 20
69 164 364 66 135 124 247 129 248 5 2 9 9 9 15 0 11 159 288 170 297 4 3 13
16 20 30 21 42 181 283 203 308 11 12 17 22 14 22 -4 0 0 8 9 18 9 9 43 56 77
103 82 114 100 139 112 153 6 6 23 29 39 51 40 54 188 240 230 288 10 12 35
42 55 67 20 24 43 51 51 60 8 9 42 47 75 84 129 147 197 219 400 421 210 210
294 290 394 375 53 45 88 75 126 109 24 22 230 187 270 218 17 13 48 36 70 53
22 16 45 33 50 38 21 16 148 108 170 122 13 8 81 54 152 101 150 101 426 268
465 281 16 6 28 14 28 20 0 5 4 7 9 3 5 -3 13 0 16 6 10 15 332 169 488 233
117 48 349 131 395 141 9 2 50 13 91 25 63 18 150 38 236 56 11 2 49 10 85 17
55 12 117 13 128 2z m1947 -61 c28 -3 77 -10 110 -15 33 -6 71 -13 85 -15 14
-3 33 -7 42 -10 21 -6 54 -14 93 -21 75 -13 312 -100 424 -155 114 -56 263
-150 335 -209 71 -59 235 -231 271 -284 22 -33 48 -68 57 -79 10 -10 15 -23
12 -28 -3 -4 -1 -8 4 -8 14 0 110 -200 148 -310 70 -204 98 -379 97 -615 0
-107 -9 -267 -18 -325 -3 -19 -8 -53 -11 -75 -2 -22 -11 -71 -19 -110 -8 -38
-16 -79 -18 -90 -6 -32 -62 -245 -73 -275 -3 -8 -5 -15 -5 -15 7 0 -110 -306
-146 -385 -14 -30 -30 -66 -36 -80 -6 -14 -11 -27 -13 -30 -1 -3 -5 -15 -9
-27 -4 -13 -11 -23 -16 -23 -5 0 -8 -3 -7 -7 3 -9 -51 -116 -87 -173 -14 -22
-25 -43 -25 -46 0 -9 -113 -193 -170 -275 -66 -96 -133 -193 -142 -204 -4 -5
-49 -64 -99 -130 -51 -66 -106 -136 -123 -156 -17 -19 -47 -55 -68 -80 -20
-24 -51 -62 -70 -84 -32 -38 -48 -56 -174 -195 -103 -113 -466 -470 -478 -470
-2 0 -28 -24 -58 -52 -30 -29 -94 -89 -143 -133 -49 -44 -98 -89 -110 -100
-42 -38 -85 -66 -95 -60 -5 3 -7 0 -4 -8 3 -8 -6 -18 -21 -25 -14 -6 -25 -16
-25 -22 0 -5 -4 -10 -10 -10 -10 0 -22 -9 -83 -62 -18 -15 -35 -28 -38 -28 -3
0 -17 -10 -31 -23 -43 -38 -196 -158 -261 -205 -18 -12 -39 -28 -48 -35 -55
-44 -327 -227 -338 -227 -5 0 -11 -3 -13 -7 -1 -5 -30 -26 -63 -47 -42 -28
-55 -33 -45 -18 16 22 220 285 245 315 8 9 15 20 15 23 0 3 15 24 34 47 45 55
267 375 285 409 8 15 22 36 31 46 10 10 21 28 24 40 4 12 13 28 19 34 7 7 33
46 57 86 25 39 48 72 52 72 5 0 8 6 8 13 0 7 13 31 29 53 16 21 38 55 49 75
47 84 117 204 122 209 3 3 15 25 28 50 13 25 45 86 72 135 54 100 194 380 248
495 70 152 85 185 88 195 3 11 107 263 126 305 6 14 12 30 14 35 1 6 20 57 42
115 35 95 109 313 118 350 2 8 17 60 33 115 17 55 32 112 35 127 2 15 7 31 10
36 3 5 7 19 10 33 2 13 13 65 25 114 11 50 22 104 25 120 3 17 8 39 10 50 2
11 7 40 11 65 4 25 9 52 10 60 15 87 24 150 42 320 10 95 10 584 -1 670 -8 68
-15 118 -22 154 -2 11 -7 40 -10 64 -5 36 -30 145 -49 215 -3 9 -7 25 -9 35
-5 19 -34 108 -43 132 -3 8 -7 20 -9 25 -6 24 -68 163 -101 223 -45 86 -153
247 -192 290 -17 18 -31 35 -31 36 0 2 -18 22 -40 45 -22 22 -40 43 -40 47 0
3 21 2 48 -1 26 -3 70 -8 97 -11z m-3140 -32 c-16 -10 -61 -35 -98 -56 -109
-59 -130 -71 -239 -137 -105 -64 -323 -208 -413 -273 -27 -19 -58 -41 -69 -48
-17 -12 -77 -57 -101 -76 -5 -4 -39 -30 -75 -57 -36 -27 -70 -54 -76 -60 -6
-5 -43 -35 -83 -65 -39 -30 -71 -58 -71 -62 0 -5 -4 -8 -10 -8 -5 0 -20 -10
-32 -22 -13 -13 -50 -45 -83 -73 -32 -27 -73 -63 -91 -80 -19 -16 -65 -59
-105 -95 -190 -173 -538 -532 -699 -720 -30 -36 -59 -70 -65 -76 -5 -6 -28
-32 -50 -59 -22 -27 -50 -60 -62 -74 -13 -14 -26 -30 -31 -36 -16 -20 -173
-221 -195 -249 -12 -16 -29 -36 -37 -45 -8 -9 -28 -37 -45 -61 -16 -25 -36
-53 -45 -62 -32 -35 -40 -47 -40 -58 0 -5 -3 -10 -8 -10 -4 0 -16 -15 -25 -33
-10 -19 -28 -45 -40 -58 -26 -28 -235 -339 -329 -489 -96 -154 -145 -237 -239
-405 -46 -83 -92 -164 -101 -180 -42 -75 -261 -522 -306 -625 -27 -63 -60
-137 -72 -165 -24 -56 -100 -250 -153 -395 -35 -93 -141 -424 -151 -471 -3
-13 -15 -60 -27 -104 -11 -44 -22 -89 -25 -100 -2 -11 -17 -83 -33 -160 -16
-77 -32 -160 -36 -185 -3 -25 -8 -58 -11 -75 -28 -190 -39 -356 -39 -595 0
-259 11 -385 50 -590 18 -94 85 -330 105 -370 4 -8 25 -55 46 -105 46 -107
140 -266 213 -362 29 -37 98 -112 153 -165 75 -73 91 -94 66 -82 -18 8 -45 20
-60 27 -16 6 -28 15 -28 20 0 4 -4 6 -9 3 -5 -3 -14 1 -21 9 -7 8 -17 15 -22
15 -5 0 -51 28 -101 62 -153 104 -349 315 -446 478 -39 66 -141 279 -141 294
0 8 -4 17 -9 20 -5 3 -11 16 -14 28 -3 13 -19 68 -37 123 -53 170 -90 364
-108 559 -9 108 -8 517 2 636 12 136 15 165 16 165 1 0 3 16 5 35 4 42 13 107
19 135 2 11 7 40 11 65 4 25 9 54 11 65 3 11 7 36 10 55 3 19 12 62 19 95 8
33 17 74 20 90 3 17 8 39 10 50 8 36 75 278 100 360 13 44 25 85 26 90 1 9 13
42 35 100 4 11 8 22 9 25 0 3 9 30 20 60 11 30 20 57 20 60 1 3 5 12 8 20 4 8
29 74 56 145 80 210 148 366 266 605 80 162 167 325 177 328 4 2 8 8 8 13 0 6
34 67 76 137 94 158 97 164 107 176 4 6 54 80 110 164 56 85 113 170 127 190
23 34 140 195 158 217 4 6 32 42 62 80 30 39 58 72 62 73 5 2 8 8 8 14 0 5 6
15 13 22 21 23 60 69 122 146 33 41 65 80 71 85 6 6 37 41 70 80 117 138 249
279 430 460 158 157 330 318 433 404 24 20 55 46 70 59 14 13 42 35 61 50 19
15 40 32 45 38 6 6 51 42 100 80 50 38 95 72 100 77 84 65 405 288 450 313 42
23 191 114 202 124 7 6 23 15 35 20 13 5 50 25 83 44 70 41 444 227 465 232 3
0 16 6 30 11 36 16 213 84 225 87 6 2 17 6 25 9 24 10 114 39 130 42 8 2 26 8
40 14 40 16 48 12 15 -7z m2345 -27 c0 7 148 -73 179 -97 13 -10 30 -18 37
-18 8 0 14 -5 14 -10 0 -6 8 -13 18 -17 51 -19 280 -232 325 -304 11 -16 23
-29 28 -29 5 0 9 -5 9 -11 0 -6 14 -28 30 -49 17 -21 30 -43 30 -49 0 -6 3
-11 8 -11 4 0 12 -10 18 -23 6 -12 29 -56 50 -97 22 -41 50 -100 63 -130 32
-74 102 -279 106 -310 2 -14 10 -52 18 -85 25 -99 41 -206 54 -350 10 -112 10
-441 0 -555 -17 -203 -24 -256 -53 -430 -15 -87 -49 -250 -71 -335 -14 -55
-27 -107 -29 -115 -15 -65 -40 -150 -66 -230 -16 -52 -32 -102 -33 -110 -2 -8
-20 -60 -40 -115 -20 -55 -40 -111 -45 -125 -18 -54 -109 -279 -144 -353 -20
-43 -36 -80 -36 -83 0 -2 -29 -64 -65 -139 -36 -74 -65 -139 -65 -144 0 -5 -3
-11 -7 -13 -5 -1 -30 -46 -57 -98 -53 -104 -169 -305 -222 -387 -19 -28 -34
-56 -34 -61 0 -6 -3 -12 -7 -14 -12 -5 -193 -277 -193 -288 0 -6 -5 -10 -10
-10 -6 0 -14 -8 -17 -17 -4 -10 -17 -31 -30 -48 -13 -16 -27 -35 -31 -40 -22
-30 -157 -212 -164 -220 -4 -5 -29 -37 -55 -70 -26 -33 -88 -109 -137 -170
-116 -140 -126 -152 -156 -185 -14 -15 -50 -55 -80 -90 -91 -105 -154 -164
-196 -185 -21 -11 -41 -22 -44 -25 -3 -3 -36 -21 -75 -40 -38 -19 -109 -56
-157 -81 -49 -26 -88 -44 -88 -40 0 3 -4 1 -8 -4 -11 -16 -354 -185 -363 -179
-4 2 -1 13 9 22 9 10 40 44 67 76 28 32 56 64 63 71 6 8 12 16 12 19 0 3 8 14
18 24 9 10 24 29 32 42 8 13 22 31 30 40 8 8 35 43 60 75 24 33 50 67 57 75 7
8 33 42 58 75 24 33 50 67 58 75 11 13 27 34 92 118 5 7 18 22 28 33 9 10 17
23 17 28 0 5 4 11 8 13 4 1 30 35 57 73 27 39 53 75 58 80 8 11 105 157 122
184 6 9 12 18 15 21 3 3 10 13 15 22 6 10 42 68 81 130 40 62 87 139 105 171
19 32 42 71 51 85 9 15 29 50 43 77 15 28 38 65 52 83 13 17 22 32 19 32 -3 0
10 25 29 55 19 30 35 59 35 65 0 5 5 10 10 10 6 0 10 9 10 19 0 11 3 21 8 23
8 3 23 32 137 258 80 158 205 419 205 426 0 3 20 49 65 149 7 17 23 55 35 85
12 30 27 69 35 85 39 91 177 478 180 505 0 3 3 10 6 15 4 6 10 26 15 45 11 50
11 50 14 53 1 1 3 9 5 17 2 8 11 40 20 70 28 93 83 310 79 310 -2 0 1 11 6 26
6 14 12 37 15 52 3 15 7 38 10 52 17 78 62 357 71 435 3 32 8 68 10 79 22 113
21 661 0 786 -3 14 -8 51 -11 84 -3 32 -13 95 -21 140 -9 44 -18 92 -21 105
-2 14 -6 28 -8 32 -3 4 -7 23 -11 44 -10 67 -94 295 -149 409 -79 162 -200
343 -274 410 -34 30 -24 38 19 16 22 -11 40 -18 40 -15z m-613 -81 c171 -101
358 -278 486 -461 20 -29 37 -56 37 -60 0 -3 6 -14 14 -22 39 -44 175 -344
201 -446 5 -16 9 -34 11 -40 30 -103 56 -233 79 -385 27 -182 28 -703 1 -895
-5 -42 -19 -146 -22 -170 -6 -54 -15 -110 -35 -210 -12 -60 -23 -119 -25 -130
-3 -23 -5 -32 -34 -145 -11 -47 -23 -96 -26 -110 -9 -43 -85 -307 -101 -350
-3 -8 -7 -19 -9 -25 -1 -5 -12 -37 -24 -70 -11 -33 -22 -65 -23 -72 -2 -7 -6
-16 -10 -19 -4 -4 -7 -14 -7 -22 0 -15 -135 -361 -179 -457 -15 -33 -38 -85
-52 -115 -49 -114 -242 -490 -251 -490 -5 0 -6 -4 -3 -10 3 -6 1 -10 -5 -10
-6 0 -8 -5 -5 -10 3 -5 1 -10 -4 -10 -6 0 -11 -4 -11 -9 0 -9 -58 -109 -70
-121 -3 -3 -12 -18 -20 -35 -8 -16 -23 -40 -34 -52 -11 -13 -15 -23 -10 -23 5
0 4 -4 -2 -8 -6 -4 -28 -38 -50 -75 -67 -117 -76 -132 -85 -135 -5 -2 -9 -8
-9 -13 0 -7 -184 -275 -222 -324 -4 -5 -54 -67 -110 -137 -57 -69 -113 -140
-125 -156 -12 -15 -34 -41 -47 -55 -14 -15 -22 -27 -18 -27 4 0 3 -4 -3 -8 -9
-6 -93 -104 -120 -140 -5 -7 -18 -21 -27 -30 -10 -9 -18 -22 -18 -29 0 -7 -7
-13 -16 -13 -8 0 -12 -4 -9 -10 3 -5 1 -10 -4 -10 -6 0 -11 -5 -11 -10 0 -6
-11 -21 -25 -34 -14 -13 -25 -26 -25 -29 0 -6 -19 -27 -224 -241 -87 -92 -173
-173 -190 -180 -60 -26 -246 -96 -256 -96 -6 0 -18 -4 -28 -10 -30 -17 -421
-142 -487 -156 -11 -2 -72 -17 -135 -33 -124 -31 -266 -64 -290 -67 -8 -1 -28
-4 -45 -7 -16 -4 -46 -9 -65 -12 -19 -3 -60 -10 -90 -15 -206 -34 -364 -45
-640 -45 -213 0 -364 7 -431 20 -13 3 -42 7 -64 10 -22 2 -51 7 -65 10 -14 3
-38 8 -55 11 -16 2 -41 7 -55 9 -14 3 -59 14 -100 26 -41 11 -91 24 -110 29
-107 28 -465 193 -500 231 -3 3 -27 21 -55 40 -27 18 -63 45 -80 59 -44 36
-245 241 -245 251 0 4 -6 14 -13 21 -66 67 -224 370 -242 465 -2 10 -4 19 -4
21 -1 1 0 3 1 5 1 1 -4 11 -10 23 -6 11 -13 32 -16 45 -7 34 -34 168 -40 204
-22 111 -22 493 -1 603 2 11 7 42 11 69 3 26 8 57 11 68 2 11 6 36 9 55 2 19
7 43 10 52 3 10 7 28 9 40 8 45 46 185 72 268 15 47 27 87 28 90 1 3 4 12 7
20 3 8 22 60 43 115 20 55 44 116 52 135 8 19 19 44 23 55 17 42 154 320 160
325 3 3 14 21 24 40 23 46 50 94 56 100 9 8 60 89 60 94 0 3 37 58 82 123 123
178 151 217 162 229 6 6 18 22 26 34 8 12 20 28 25 34 6 6 46 56 90 111 101
127 114 143 198 240 29 33 66 74 82 92 17 18 66 71 110 119 79 86 363 374 369
374 2 0 30 26 63 58 32 31 92 86 133 122 40 36 81 72 90 80 8 8 31 28 50 44
83 67 136 112 158 134 12 12 25 22 28 22 3 0 39 28 82 63 66 54 158 123 407
307 28 21 115 81 195 134 80 53 150 100 155 104 11 9 190 122 217 137 9 6 85
49 167 98 83 48 155 87 161 87 5 0 10 4 10 8 0 4 15 15 33 24 17 8 126 63 241
122 179 92 514 246 586 271 10 4 66 26 85 34 47 20 189 72 305 111 69 23 132
44 140 47 8 4 20 7 25 9 130 39 259 76 275 79 8 2 33 8 55 14 22 6 45 11 50
12 6 1 26 7 45 14 44 16 58 13 117 -21z m-990 -6695 c-10 -6 -34 -25 -52 -42
-77 -73 -105 -97 -110 -97 -3 0 -13 -8 -23 -17 -27 -26 -61 -54 -138 -114 -38
-30 -71 -56 -74 -59 -3 -3 -57 -44 -120 -91 -217 -162 -433 -305 -702 -464
-69 -41 -314 -169 -303 -158 6 5 51 40 100 78 50 38 95 74 101 80 7 5 24 19
40 30 15 11 38 29 50 40 12 12 37 32 55 45 18 14 37 30 43 35 6 6 47 41 91 79
44 38 88 78 98 89 9 10 17 17 17 15 0 -5 89 77 225 207 47 45 82 67 137 89 67
27 132 56 278 123 67 31 225 110 260 129 29 16 54 19 27 3z"/>
</g>
</svg>
